<svg id="Capa_1" xmlns="http://www.w3.org/2000/svg" width="342.286" height="41.857" viewBox="0 0 342.286 41.857"><g fill="#2C2C26"><path d="M166.953 21.605c-3.765-2.868-19.31-14.087-30.48-12.6-17.56 1.248-19.127 24.682.562 25.632 9.88.474 21.59-7.933 29.465-12.756l.453-.275zM136.275 7.528c13.072-1.74 31.436 12.762 32.407 13.535a.75.75 0 0 1-.03 1.257c-.463.276-.917.557-1.375.837-11.18 6.85-21.843 13.378-30.308 12.97-23.242-1.115-22.62-26.205-.695-28.6z"/><path d="M168.815 33.85a.757.757 0 0 1-1.1.16c-1.797-1.24-3.887-2.97-6.192-4.876-2.587-2.134-5.445-4.5-8.41-6.613-6.495 3.71-13.358 6.535-17.482 5.05-5.38-1.138-9.696-7.188-3.054-11.248 6.267-3.66 13.727-.345 20.62 4.425 6.54-3.824 12.61-8.426 14.72-10.057a.748.748 0 1 1 .916 1.182c-2.07 1.597-7.903 6.02-14.3 9.82 2.805 2.04 5.495 4.262 7.95 6.287 2.285 1.89 4.36 3.605 6.08 4.793 0 .005.004.01.01.01a.76.76 0 0 1 .243 1.066zm-17.063-12.275c-4.942-3.345-10.372-5.183-14.974-4.592-1.576.202-2.67.877-3.316 1.774-.94 1.31-.92 3.094-.06 4.563.567.965 1.51 1.798 2.78 2.262 3.503 1.265 9.583-.646 15.57-4.007z"/><path d="M170.397 21.62c3.765-2.873 19.305-14.087 30.48-12.6 17.56 1.243 19.127 24.682-.563 25.627-9.884.474-21.59-7.928-29.465-12.75l-.453-.277zm30.667-14.082c-13.066-1.74-31.845 12.673-32.815 13.446-.04.044-.302.3-.218.586.094.325.542.685.66.76.463.28.917.56 1.375.842 11.18 6.844 21.843 13.373 30.308 12.968 23.236-1.113 22.625-26.203.69-28.602z"/><path d="M168.328 33.864a.758.758 0 0 0 1.1.163c1.797-1.247 3.887-2.972 6.192-4.878 2.587-2.14 5.45-4.5 8.416-6.614 6.494 3.71 13.353 6.53 17.472 5.045 5.39-1.137 9.707-7.187 3.065-11.243-6.268-3.66-13.737-.35-20.626 4.425-6.538-3.823-12.61-8.426-14.718-10.057a.75.75 0 0 0-1.05.133.75.75 0 0 0 .138 1.05c2.064 1.596 7.898 6.016 14.3 9.82-2.81 2.034-5.5 4.26-7.95 6.286-2.29 1.887-4.36 3.602-6.08 4.794-.004.005-.01.005-.014.01a.76.76 0 0 0-.246 1.066zm17.058-12.274c4.946-3.35 10.376-5.184 14.98-4.598 5.41.695 5.123 6.943.6 8.604-3.508 1.26-9.59-.65-15.58-4.006z"/><path d="M167.864 33.144c.33-.2.798-.152 1.05.114.25.27.187.65-.144.856-1.828 1.144-3.65 2.228-5.475 3.085-1.857.88-3.715 1.52-5.582 1.758-1.912.246-3.814.06-5.706-.734-1.843-.773-3.656-2.128-5.444-4.237-.232-.28-.148-.66.192-.853.34-.187.803-.118 1.04.158 1.636 1.932 3.267 3.158 4.897 3.848 1.587.666 3.184.818 4.794.616 1.656-.212 3.346-.803 5.06-1.61 1.75-.828 3.53-1.883 5.318-3.002z"/><path d="M169.574 33.273c-.33-.202-.798-.153-1.05.113-.25.27-.35.522-.024.73 1.705 1.266 3.814 2.36 5.643 3.217 1.852.877 3.715 1.522 5.582 1.76 1.917.24 3.81.054 5.7-.74 1.844-.772 3.667-2.133 5.45-4.237.236-.275.148-.66-.197-.847-.335-.193-.798-.125-1.034.15-1.636 1.933-3.272 3.164-4.897 3.85-1.587.665-3.184.822-4.795.615-1.66-.207-3.35-.803-5.06-1.61-1.756-.83-3.53-1.884-5.318-3.002z"/><g><path d="M168.046 11.065a.68.68 0 0 0 .95-.123.67.67 0 0 0-.127-.94c-1.657-1.262-3.303-2.455-4.953-3.4-1.68-.972-3.355-1.68-5.045-1.937-1.73-.27-3.45-.064-5.154.808-1.67.853-3.312 2.345-4.923 4.666a.667.667 0 0 0 .168.935c.31.212.73.133.94-.172 1.48-2.124 2.958-3.48 4.43-4.237 1.435-.734 2.878-.902 4.332-.68 1.502.232 3.03.887 4.578 1.78 1.58.91 3.187 2.072 4.803 3.3z"/><path d="M169.594 10.927a.686.686 0 0 1-.95-.128c-.223-.296-.316-.577-.02-.8 1.54-1.398 3.448-2.6 5.094-3.54 1.685-.972 3.365-1.68 5.05-1.942 1.73-.266 3.444-.064 5.16.813 1.664.854 3.3 2.346 4.916 4.672.217.3.138.72-.167.93a.674.674 0 0 1-.937-.17c-1.487-2.125-2.956-3.48-4.435-4.24-1.43-.728-2.877-.9-4.33-.674-1.5.227-3.03.882-4.578 1.774-1.58.91-3.187 2.074-4.803 3.305z"/></g></g><g fill="#2C2C26"><path fill-rule="evenodd" clip-rule="evenodd" d="M334.396 24.522c1.558 0 2.818-1.227 2.818-2.725s-1.26-2.72-2.818-2.72c-1.547 0-2.818 1.222-2.818 2.72 0 1.498 1.27 2.725 2.818 2.725z"/><path d="M7.64 20.698h112.045v2.966H7.64zM217.66 20.703h117.013v2.957H217.66z"/><path fill-rule="evenodd" clip-rule="evenodd" d="M7.038 25.01c1.552 0 2.823-1.223 2.823-2.72 0-1.503-1.27-2.726-2.822-2.726-1.557 0-2.824 1.222-2.824 2.725 0 1.498 1.267 2.72 2.824 2.72z"/></g></svg>