<svg id="Capa_1" xmlns="http://www.w3.org/2000/svg" viewBox="0 0 513.32 513.32"><path d="M192.495 128.33h-42.777c0 21.388 10.694 55.61 32.083 74.86 19.25 21.387 47.056 32.08 74.86 32.08v-42.776c-17.11 0-34.22-6.416-44.916-19.25-12.833-10.693-19.25-23.526-19.25-44.914z"/><path d="M393.545 265.215c36.36-38.5 55.61-87.692 55.61-136.885 0-42.777-12.833-85.553-42.777-119.775C402.1 2.14 395.684 0 389.268 0H124.052c-6.416 0-12.833 2.14-17.11 8.555C76.998 42.777 64.165 85.553 64.165 128.33c0 49.193 19.25 98.386 55.61 136.885 32.082 32.082 72.72 51.332 115.497 55.61v149.718H149.72v42.777H363.6v-42.777H278.05V318.686c42.775-4.277 83.412-21.388 115.495-53.47zm-241.688-32.082c-53.47-51.332-59.887-126.19-17.11-190.356h245.966c40.638 64.165 34.22 139.024-17.11 190.356-59.89 59.887-153.998 59.887-211.746 0z"/></svg>