<svg id="Capa_1" xmlns="http://www.w3.org/2000/svg" xmlns:xlink="http://www.w3.org/1999/xlink" width="219" height="219" viewBox="0 0 219 219"><circle fill="#C03127" cx="109.508" cy="109.755" r="105"/><g fill="#FFF" stroke="#FFF" stroke-width=".274" stroke-miterlimit="10"><path d="M62.39 112.633l-3.95.658c.17-.707.256-1.3.256-1.778 0-3.062-2.07-4.597-6.206-4.597-3.26 0-4.892 1.056-4.892 3.17 0 1.583 1.826 2.94 5.476 4.075 7.04 2.178 10.56 5.396 10.56 9.658 0 2.5-.988 4.507-2.962 6.02-1.975 1.515-4.6 2.27-7.88 2.27-7.256 0-10.882-2.53-10.882-7.592 0-.414.036-.922.106-1.526l4.1-.812c-.314 1.12-.47 2.093-.47 2.916 0 3.27 2.08 4.908 6.245 4.908 3.335 0 5.004-1.178 5.004-3.535 0-1.75-1.998-3.293-5.99-4.617-5.768-1.906-8.65-4.953-8.65-9.14 0-2.368.96-4.28 2.886-5.728 1.924-1.45 4.453-2.173 7.59-2.173 6.438 0 9.66 2.607 9.66 7.823zM79.347 104.79c8.53 0 12.793 4.547 12.793 13.64 0 9.094-4.344 13.64-13.03 13.64-8.687 0-13.03-4.65-13.03-13.95 0-8.888 4.422-13.33 13.267-13.33zm-.236 2.106c-1.605 0-2.687.795-3.253 2.385-.565 1.593-.847 4.644-.847 9.15 0 4.507.28 7.558.847 9.146.566 1.592 1.648 2.388 3.254 2.388 1.605 0 2.688-.796 3.252-2.388.565-1.59.85-4.64.85-9.147 0-4.497-.285-7.542-.85-9.14-.564-1.595-1.647-2.394-3.25-2.394zM123.116 105.255v26.37h-8.2V113.27l-5.71 18.355h-4.744l-5.86-18.047v18.047h-2.855v-26.37h8.63l5.022 15.92 5-15.92h8.716zM140.16 104.79c8.53 0 12.795 4.547 12.795 13.64 0 9.094-4.344 13.64-13.03 13.64s-13.03-4.65-13.03-13.95c0-8.888 4.423-13.33 13.266-13.33zm-.234 2.106c-1.604 0-2.688.795-3.253 2.385-.564 1.593-.847 4.644-.847 9.15 0 4.507.282 7.558.847 9.146.565 1.592 1.65 2.388 3.253 2.388s2.687-.796 3.252-2.388c.565-1.59.848-4.64.848-9.147 0-4.497-.282-7.542-.848-9.14-.566-1.595-1.65-2.394-3.252-2.394zM175.86 112.633l-3.952.658c.174-.707.26-1.3.26-1.778 0-3.062-2.068-4.597-6.204-4.597-3.263 0-4.895 1.056-4.895 3.17 0 1.583 1.824 2.94 5.475 4.075 7.04 2.178 10.56 5.396 10.56 9.658 0 2.5-.985 4.507-2.96 6.02-1.977 1.515-4.603 2.27-7.88 2.27-7.257 0-10.882-2.53-10.882-7.592 0-.414.035-.922.107-1.526l4.1-.812c-.315 1.12-.472 2.093-.472 2.916 0 3.27 2.08 4.908 6.245 4.908 3.336 0 5-1.178 5-3.535 0-1.75-1.996-3.293-5.988-4.617-5.766-1.906-8.65-4.953-8.65-9.14 0-2.368.962-4.28 2.887-5.728 1.924-1.45 4.455-2.173 7.59-2.173 6.44 0 9.66 2.607 9.66 7.823z"/></g><g fill="#FFF" stroke="#FFF" stroke-width=".281" stroke-miterlimit="10"><path d="M58.662 139.084v2.228H48.91v7.388h8.275v2.23H48.91v10.327h-7.8v-22.172h17.552zM73.497 139.084l7.484 22.172h-7.838l-1.597-4.81h-8.097l-1.715 4.81H58.68l7.96-22.172h6.857zm-9.28 15.14h6.6l-3.17-9.83-3.43 9.83zM108.067 139.084v22.172h-7.524v-15.43l-5.24 15.43H90.95l-5.377-15.17v15.17H82.95v-22.172h7.92l4.61 13.386 4.592-13.386h7.995zM120.54 139.084v22.172h-7.802v-22.172h7.8zM133.008 139.084v19.947h11.05v2.226h-18.85v-22.172h7.8zM153.535 139.084v22.172h-7.8v-22.172h7.8zM170.418 139.084l7.486 22.172h-7.84l-1.596-4.81h-8.1l-1.71 4.81H155.6l7.96-22.172h6.856zm-9.278 15.14h6.6l-3.172-9.83-3.428 9.83z"/></g><path fill="none" stroke="#FFF" stroke-width="5.929" d="M138.607 64.698l-28.212-23.785-81.16 66.757M189.78 107.67l-33.733-29.532"/><defs><path id="SVGID_1_" d="M133.166 64.07l10.676 8.953 6.258-43.24-.88-10.55h-23.235z"/></defs><clipPath id="SVGID_2_"><use xlink:href="#SVGID_1_" overflow="visible"/></clipPath><path clip-path="url(#SVGID_2_)" fill="#FFF" stroke="#FFF" stroke-width=".988" stroke-linecap="round" stroke-miterlimit="10" d="M141.977 86.28s.12 3.506-2.988 3.528c-3.105.022-3.25-9.93-3.25-9.93s2.67-27.338 2.216-32.04c-.02-.207-.052-.52-.463-.788-3.12-2.143-4.28-4.67-4.326-10.915l.69-11.45h.323l.994 14.537c.002.34.152.612.457.61.31-.002.454-.28.452-.62l.754-14.55h.38l.96 14.538c0 .337.152.612.457.61.307 0 .453-.28.45-.618l.786-14.55.347-.002.96 14.537c.004.34.152.614.458.612.31 0 .455-.28.453-.62l.753-14.55.355-.003.854 11.442c.042 6.242-1.08 8.786-4.17 10.972-.41.273-.435.59-.452.797-.39 4.705 2.55 38.45 2.55 38.45z"/><g><defs><path id="SVGID_3_" d="M150.063 76.97l12.218 10.586V35.56l-9.417-4.144-4.898 7.41z"/></defs><clipPath id="SVGID_4_"><use xlink:href="#SVGID_3_" overflow="visible"/></clipPath><path clip-path="url(#SVGID_4_)" fill="#FFF" stroke="#FFF" stroke-width=".988" stroke-linecap="round" stroke-miterlimit="10" d="M157.707 66.865c-.027 8.34 1.414 33.557 1.414 33.557s.083 3.243-2.908 3.233c-2.99-.015-2.886-3.254-2.886-3.254s1.648-24.568 1.725-33.237h-.02c-.666-.003.322-1.68-.892-2.252-.8-.372-1.25-.76-1.613-2.026-2.2-7.724.624-23.06 2.304-25.716.93-1.475 2.975-1.32 2.97-.295l-.093 29.992z"/></g></svg>