<svg id="Capa_1" xmlns="http://www.w3.org/2000/svg" width="181.5" height="76.5" viewBox="0 0 181.5 76.5"><g fill="#FFF" stroke="#FFF" stroke-width=".131" stroke-miterlimit="10"><path d="M29.688 11.207l-5.14.856c.224-.922.335-1.694.335-2.315 0-3.985-2.694-5.98-8.077-5.98-4.243 0-6.364 1.372-6.364 4.122 0 2.063 2.375 3.83 7.125 5.305 9.16 2.833 13.74 7.02 13.74 12.57 0 3.252-1.286 5.863-3.854 7.83-2.57 1.972-5.987 2.954-10.253 2.954-9.442 0-14.16-3.293-14.16-9.88 0-.538.046-1.2.138-1.986l5.337-1.055c-.41 1.457-.613 2.72-.613 3.793 0 4.257 2.707 6.388 8.125 6.388 4.338 0 6.512-1.533 6.512-4.6 0-2.278-2.602-4.284-7.795-6.008-7.506-2.48-11.26-6.444-11.26-11.89 0-3.085 1.254-5.57 3.758-7.455 2.504-1.886 5.793-2.83 9.875-2.83 8.38 0 12.57 3.39 12.57 10.18zM51.755 1C62.855 1 68.4 6.917 68.4 18.75S62.75 36.5 51.448 36.5c-11.305 0-16.957-6.052-16.957-18.153C34.49 6.78 40.245 1 51.755 1zm-.308 2.743c-2.09 0-3.498 1.034-4.235 3.102-.735 2.07-1.102 6.042-1.102 11.904 0 5.865.367 9.835 1.102 11.902.738 2.07 2.146 3.107 4.235 3.107 2.086 0 3.495-1.038 4.23-3.108.735-2.066 1.105-6.037 1.105-11.903 0-5.852-.37-9.814-1.105-11.894-.735-2.074-2.143-3.113-4.23-3.113zM108.71 1.607V35.92H98.04V12.036L90.61 35.92h-6.175L76.81 12.436V35.92h-3.717V1.606h11.23L90.86 22.32l6.507-20.713h11.342zM130.887 1c11.1 0 16.65 5.917 16.65 17.75s-5.652 17.75-16.955 17.75-16.956-6.052-16.956-18.153C113.626 6.78 119.38 1 130.886 1zm-.305 2.743c-2.088 0-3.498 1.034-4.234 3.102-.732 2.07-1.102 6.042-1.102 11.904 0 5.865.37 9.835 1.102 11.902.736 2.07 2.146 3.107 4.234 3.107 2.086 0 3.496-1.038 4.23-3.108.737-2.066 1.104-6.037 1.104-11.903 0-5.852-.366-9.814-1.103-11.894-.735-2.074-2.145-3.113-4.23-3.113zM177.342 11.207l-5.143.856c.225-.922.336-1.694.336-2.315 0-3.985-2.69-5.98-8.074-5.98-4.243 0-6.368 1.372-6.368 4.122 0 2.063 2.375 3.83 7.124 5.305 9.162 2.833 13.743 7.02 13.743 12.57 0 3.252-1.283 5.863-3.853 7.83-2.57 1.972-5.987 2.954-10.252 2.954-9.444 0-14.162-3.293-14.162-9.88 0-.538.048-1.2.143-1.986l5.333-1.055c-.41 1.457-.614 2.72-.614 3.793 0 4.257 2.706 6.388 8.127 6.388 4.34 0 6.508-1.533 6.508-4.6 0-2.278-2.6-4.284-7.793-6.008-7.502-2.48-11.257-6.444-11.257-11.89 0-3.085 1.254-5.57 3.757-7.455 2.502-1.886 5.797-2.83 9.876-2.83 8.38 0 12.57 3.39 12.57 10.18z"/></g><g fill="#FFF" stroke="#FFF" stroke-width=".134" stroke-miterlimit="10"><path d="M24.837 45.625v2.9h-12.69v9.612h10.77v2.9h-10.77v13.438H2v-28.85h22.837zM44.142 45.625l9.74 28.852h-10.2l-2.08-6.26H31.067l-2.23 6.26h-3.973L35.22 45.625h8.922zM32.067 65.327h8.585l-4.124-12.79-4.46 12.79zM89.124 45.625v28.852h-9.79v-20.08l-6.818 20.08H66.85l-6.995-19.74v19.74h-3.41V45.624H66.75l5.998 17.418 5.976-17.418h10.4zM105.354 45.625v28.852h-10.15V45.625h10.15zM121.578 45.625v25.958h14.382v2.894h-24.53V45.625h10.148zM148.29 45.625v28.852h-10.15V45.625h10.15zM170.26 45.625L180 74.477h-10.2l-2.077-6.26h-10.538l-2.228 6.26h-3.974l10.354-28.852h8.923zm-12.075 19.702h8.59l-4.127-12.79-4.463 12.79z"/></g></svg>