<?xml version="1.0" encoding="iso-8859-1"?>
<!-- Generator: Adobe Illustrator 19.1.0, SVG Export Plug-In . SVG Version: 6.00 Build 0)  -->
<svg version="1.1" id="Capa_1" xmlns="http://www.w3.org/2000/svg" xmlns:xlink="http://www.w3.org/1999/xlink" x="0px" y="0px"
	 viewBox="0 0 513.32 513.32" style="enable-background:new 0 0 513.32 513.32;" xml:space="preserve">
<g>
	<g>
		<g>
			<path d="M192.495,128.33h-42.777c0,21.388,10.694,55.61,32.083,74.859c19.249,21.388,47.055,32.082,74.859,32.082v-42.777
				c-17.11,0-34.221-6.416-44.916-19.249C198.911,162.551,192.495,149.718,192.495,128.33L192.495,128.33z"/>
			<path d="M393.545,265.215c36.36-38.499,55.61-87.692,55.61-136.885c0-42.777-12.833-85.553-42.777-119.775
				C402.1,2.139,395.684,0,389.268,0H124.052c-6.416,0-12.833,2.139-17.11,8.555C76.998,42.777,64.165,85.553,64.165,128.33
				c0,49.193,19.249,98.386,55.61,136.885c32.082,32.082,72.72,51.332,115.497,55.61v149.718h-85.553v42.777h213.883v-42.777
				h-85.553V318.686C320.825,314.409,361.462,297.298,393.545,265.215L393.545,265.215z M151.857,233.133
				c-53.471-51.332-59.887-126.191-17.11-190.356h245.966c40.638,64.165,34.221,139.024-17.11,190.356
				C303.714,293.02,209.605,293.02,151.857,233.133L151.857,233.133z"/>
		</g>
	</g>
</g>
<g>
</g>
<g>
</g>
<g>
</g>
<g>
</g>
<g>
</g>
<g>
</g>
<g>
</g>
<g>
</g>
<g>
</g>
<g>
</g>
<g>
</g>
<g>
</g>
<g>
</g>
<g>
</g>
<g>
</g>
</svg>
