<?xml version="1.0" encoding="utf-8"?>
<!-- Generator: Adobe Illustrator 16.0.0, SVG Export Plug-In . SVG Version: 6.00 Build 0)  -->
<!DOCTYPE svg PUBLIC "-//W3C//DTD SVG 1.1//EN" "http://www.w3.org/Graphics/SVG/1.1/DTD/svg11.dtd">
<svg version="1.1" id="Capa_1" xmlns="http://www.w3.org/2000/svg" xmlns:xlink="http://www.w3.org/1999/xlink" x="0px" y="0px"
	 width="181.5px" height="76.5px" viewBox="0 0 181.5 76.5" enable-background="new 0 0 181.5 76.5" xml:space="preserve">
<g>
	<path fill="#FFFFFF" stroke="#FFFFFF" stroke-width="0.1308" stroke-miterlimit="10" d="M29.688,11.207l-5.139,0.856
		c0.223-0.922,0.334-1.694,0.334-2.315c0-3.985-2.694-5.981-8.077-5.981c-4.243,0-6.364,1.373-6.364,4.123
		c0,2.063,2.375,3.829,7.125,5.305c9.16,2.833,13.74,7.021,13.74,12.569c0,3.253-1.286,5.864-3.854,7.832
		c-2.569,1.971-5.987,2.953-10.253,2.953c-9.442,0-14.161-3.292-14.161-9.88c0-0.537,0.047-1.199,0.139-1.985l5.337-1.055
		c-0.411,1.458-0.613,2.721-0.613,3.794c0,4.257,2.707,6.388,8.125,6.388c4.338,0,6.512-1.534,6.512-4.601
		c0-2.278-2.601-4.284-7.794-6.008c-7.506-2.48-11.259-6.444-11.259-11.891c0-3.084,1.253-5.569,3.757-7.454
		c2.504-1.886,5.793-2.829,9.875-2.829C25.497,1.026,29.688,4.418,29.688,11.207z"/>
	<path fill="#FFFFFF" stroke="#FFFFFF" stroke-width="0.1308" stroke-miterlimit="10" d="M51.755,1
		c11.101,0,16.646,5.917,16.646,17.749c0,11.834-5.651,17.75-16.954,17.75c-11.305,0-16.957-6.051-16.957-18.152
		C34.49,6.78,40.245,1,51.755,1z M51.447,3.743c-2.089,0-3.498,1.034-4.235,3.102c-0.735,2.071-1.102,6.042-1.102,11.904
		c0,5.866,0.367,9.836,1.102,11.903c0.738,2.071,2.146,3.107,4.235,3.107c2.086,0,3.495-1.037,4.23-3.107
		c0.735-2.066,1.105-6.037,1.105-11.903c0-5.851-0.37-9.813-1.105-11.893C54.942,4.782,53.534,3.743,51.447,3.743z"/>
	<path fill="#FFFFFF" stroke="#FFFFFF" stroke-width="0.1308" stroke-miterlimit="10" d="M108.709,1.607v34.313h-10.67V12.036
		l-7.43,23.883h-6.174l-7.626-23.482v23.482h-3.716V1.607h11.231l6.536,20.712l6.507-20.712H108.709z"/>
	<path fill="#FFFFFF" stroke="#FFFFFF" stroke-width="0.1308" stroke-miterlimit="10" d="M130.887,1
		c11.1,0,16.65,5.917,16.65,17.749c0,11.834-5.652,17.75-16.955,17.75s-16.956-6.051-16.956-18.152
		C113.626,6.78,119.381,1,130.887,1z M130.582,3.743c-2.088,0-3.498,1.034-4.234,3.102c-0.732,2.071-1.102,6.042-1.102,11.904
		c0,5.866,0.369,9.836,1.102,11.903c0.736,2.071,2.146,3.107,4.234,3.107c2.086,0,3.496-1.037,4.231-3.107
		c0.736-2.066,1.103-6.037,1.103-11.903c0-5.851-0.366-9.813-1.103-11.893C134.078,4.782,132.668,3.743,130.582,3.743z"/>
	<path fill="#FFFFFF" stroke="#FFFFFF" stroke-width="0.1308" stroke-miterlimit="10" d="M177.342,11.207l-5.143,0.856
		c0.226-0.922,0.337-1.694,0.337-2.315c0-3.985-2.691-5.981-8.074-5.981c-4.243,0-6.368,1.373-6.368,4.123
		c0,2.063,2.375,3.829,7.124,5.305c9.162,2.833,13.743,7.021,13.743,12.569c0,3.253-1.284,5.864-3.854,7.832
		c-2.57,1.971-5.987,2.953-10.252,2.953c-9.444,0-14.162-3.292-14.162-9.88c0-0.537,0.048-1.199,0.143-1.985l5.333-1.055
		c-0.408,1.458-0.613,2.721-0.613,3.794c0,4.257,2.706,6.388,8.127,6.388c4.34,0,6.508-1.534,6.508-4.601
		c0-2.278-2.6-4.284-7.794-6.008c-7.502-2.48-11.257-6.444-11.257-11.891c0-3.084,1.254-5.569,3.757-7.454
		c2.502-1.886,5.797-2.829,9.876-2.829C173.152,1.026,177.342,4.418,177.342,11.207z"/>
</g>
<g>
	<path fill="#FFFFFF" stroke="#FFFFFF" stroke-width="0.134" stroke-miterlimit="10" d="M24.837,45.625v2.901h-12.69v9.611h10.769
		v2.899H12.147v13.439H2V45.625H24.837z"/>
	<path fill="#FFFFFF" stroke="#FFFFFF" stroke-width="0.134" stroke-miterlimit="10" d="M44.142,45.625l9.739,28.852h-10.2
		l-2.078-6.259H31.066l-2.231,6.259h-3.972L35.22,45.625H44.142z M32.067,65.327h8.585l-4.124-12.791L32.067,65.327z"/>
	<path fill="#FFFFFF" stroke="#FFFFFF" stroke-width="0.134" stroke-miterlimit="10" d="M89.124,45.625v28.852h-9.791V54.397
		l-6.817,20.079H66.85l-6.995-19.739v19.739h-3.411V45.625H66.75l5.998,17.418l5.976-17.418H89.124z"/>
	<path fill="#FFFFFF" stroke="#FFFFFF" stroke-width="0.134" stroke-miterlimit="10" d="M105.354,45.625v28.852h-10.15V45.625
		H105.354z"/>
	<path fill="#FFFFFF" stroke="#FFFFFF" stroke-width="0.134" stroke-miterlimit="10" d="M121.578,45.625v25.958h14.382v2.894h-24.53
		V45.625H121.578z"/>
	<path fill="#FFFFFF" stroke="#FFFFFF" stroke-width="0.134" stroke-miterlimit="10" d="M148.291,45.625v28.852h-10.15V45.625
		H148.291z"/>
	<path fill="#FFFFFF" stroke="#FFFFFF" stroke-width="0.134" stroke-miterlimit="10" d="M170.26,45.625L180,74.477h-10.201
		l-2.076-6.259h-10.538l-2.228,6.259h-3.974l10.354-28.852H170.26z M158.185,65.327h8.59l-4.127-12.791L158.185,65.327z"/>
</g>
</svg>
