<?xml version="1.0" encoding="utf-8"?>
<!-- Generator: Adobe Illustrator 16.0.0, SVG Export Plug-In . SVG Version: 6.00 Build 0)  -->
<!DOCTYPE svg PUBLIC "-//W3C//DTD SVG 1.1//EN" "http://www.w3.org/Graphics/SVG/1.1/DTD/svg11.dtd">
<svg version="1.1" id="Capa_1" xmlns="http://www.w3.org/2000/svg" xmlns:xlink="http://www.w3.org/1999/xlink" x="0px" y="0px"
	 width="219px" height="219px" viewBox="0 0 219 219" enable-background="new 0 0 219 219" xml:space="preserve">
<g>
	<circle fill="#C03127" cx="109.508" cy="109.755" r="105"/>
	<g>
		<g>
			<path fill="#FFFFFF" stroke="#FFFFFF" stroke-width="0.2741" stroke-miterlimit="10" d="M62.39,112.633l-3.951,0.658
				c0.172-0.708,0.257-1.302,0.257-1.779c0-3.062-2.069-4.597-6.206-4.597c-3.261,0-4.892,1.056-4.892,3.169
				c0,1.584,1.826,2.941,5.476,4.076c7.041,2.178,10.56,5.396,10.56,9.658c0,2.501-0.988,4.507-2.962,6.02
				c-1.975,1.515-4.601,2.27-7.879,2.27c-7.257,0-10.883-2.53-10.883-7.592c0-0.414,0.036-0.922,0.106-1.526l4.101-0.812
				c-0.315,1.119-0.471,2.093-0.471,2.916c0,3.271,2.081,4.908,6.245,4.908c3.334,0,5.003-1.178,5.003-3.535
				c0-1.751-1.998-3.293-5.989-4.617c-5.769-1.906-8.652-4.953-8.652-9.139c0-2.369,0.962-4.28,2.887-5.729
				c1.924-1.449,4.453-2.173,7.59-2.173C59.168,104.809,62.39,107.417,62.39,112.633z"/>
			<path fill="#FFFFFF" stroke="#FFFFFF" stroke-width="0.2741" stroke-miterlimit="10" d="M79.347,104.79
				c8.531,0,12.793,4.547,12.793,13.64c0,9.094-4.344,13.64-13.029,13.64c-8.688,0-13.031-4.649-13.031-13.949
				C66.08,109.232,70.502,104.79,79.347,104.79z M79.111,106.896c-1.606,0-2.688,0.795-3.254,2.385
				c-0.565,1.592-0.847,4.643-0.847,9.148c0,4.508,0.281,7.559,0.847,9.147c0.566,1.592,1.648,2.388,3.254,2.388
				c1.604,0,2.687-0.796,3.251-2.388c0.565-1.589,0.849-4.64,0.849-9.147c0-4.496-0.284-7.541-0.849-9.139
				C81.798,107.695,80.715,106.896,79.111,106.896z"/>
			<path fill="#FFFFFF" stroke="#FFFFFF" stroke-width="0.2741" stroke-miterlimit="10" d="M123.116,105.255v26.37h-8.2v-18.354
				l-5.709,18.354h-4.745l-5.859-18.047v18.047h-2.856v-26.37h8.631l5.021,15.919l5.002-15.919H123.116z"/>
			<path fill="#FFFFFF" stroke="#FFFFFF" stroke-width="0.2741" stroke-miterlimit="10" d="M140.161,104.79
				c8.53,0,12.794,4.547,12.794,13.64c0,9.094-4.344,13.64-13.029,13.64c-8.687,0-13.03-4.649-13.03-13.949
				C126.896,109.232,131.318,104.79,140.161,104.79z M139.926,106.896c-1.604,0-2.688,0.795-3.253,2.385
				c-0.564,1.592-0.847,4.643-0.847,9.148c0,4.508,0.282,7.559,0.847,9.147c0.565,1.592,1.649,2.388,3.253,2.388
				s2.687-0.796,3.252-2.388c0.565-1.589,0.848-4.64,0.848-9.147c0-4.496-0.282-7.541-0.848-9.139
				C142.612,107.695,141.529,106.896,139.926,106.896z"/>
			<path fill="#FFFFFF" stroke="#FFFFFF" stroke-width="0.2741" stroke-miterlimit="10" d="M175.861,112.633l-3.953,0.658
				c0.174-0.708,0.26-1.302,0.26-1.779c0-3.062-2.068-4.597-6.204-4.597c-3.263,0-4.895,1.056-4.895,3.169
				c0,1.584,1.825,2.941,5.476,4.076c7.041,2.178,10.561,5.396,10.561,9.658c0,2.501-0.986,4.507-2.962,6.02
				c-1.976,1.515-4.602,2.27-7.879,2.27c-7.257,0-10.882-2.53-10.882-7.592c0-0.414,0.035-0.922,0.107-1.526l4.1-0.812
				c-0.315,1.119-0.472,2.093-0.472,2.916c0,3.271,2.08,4.908,6.245,4.908c3.336,0,5.001-1.178,5.001-3.535
				c0-1.751-1.997-3.293-5.989-4.617c-5.766-1.906-8.65-4.953-8.65-9.139c0-2.369,0.962-4.28,2.887-5.729
				c1.924-1.449,4.455-2.173,7.59-2.173C172.643,104.809,175.861,107.417,175.861,112.633z"/>
		</g>
		<g>
			<path fill="#FFFFFF" stroke="#FFFFFF" stroke-width="0.2809" stroke-miterlimit="10" d="M58.662,139.084v2.228H48.91v7.388h8.275
				v2.229H48.91v10.328H41.11v-22.172H58.662z"/>
			<path fill="#FFFFFF" stroke="#FFFFFF" stroke-width="0.2809" stroke-miterlimit="10" d="M73.497,139.084l7.484,22.172h-7.839
				l-1.597-4.809h-8.097l-1.715,4.809h-3.052l7.958-22.172H73.497z M64.218,154.225h6.598l-3.17-9.83L64.218,154.225z"/>
			<path fill="#FFFFFF" stroke="#FFFFFF" stroke-width="0.2809" stroke-miterlimit="10" d="M108.067,139.084v22.172h-7.524v-15.43
				l-5.24,15.43h-4.354l-5.376-15.17v15.17h-2.622v-22.172h7.919l4.609,13.386l4.593-13.386H108.067z"/>
			<path fill="#FFFFFF" stroke="#FFFFFF" stroke-width="0.2809" stroke-miterlimit="10" d="M120.539,139.084v22.172h-7.801v-22.172
				H120.539z"/>
			<path fill="#FFFFFF" stroke="#FFFFFF" stroke-width="0.2809" stroke-miterlimit="10" d="M133.008,139.084v19.947h11.051v2.225
				h-18.852v-22.172H133.008z"/>
			<path fill="#FFFFFF" stroke="#FFFFFF" stroke-width="0.2809" stroke-miterlimit="10" d="M153.535,139.084v22.172h-7.801v-22.172
				H153.535z"/>
			<path fill="#FFFFFF" stroke="#FFFFFF" stroke-width="0.2809" stroke-miterlimit="10" d="M170.418,139.084l7.486,22.172h-7.839
				l-1.597-4.809h-8.099l-1.712,4.809h-3.055l7.959-22.172H170.418z M161.14,154.225h6.601l-3.173-9.83L161.14,154.225z"/>
		</g>
		<g>
			<polyline fill="none" stroke="#FFFFFF" stroke-width="5.9294" points="138.607,64.698 110.395,40.913 29.234,107.67 			"/>
			<line fill="none" stroke="#FFFFFF" stroke-width="5.9294" x1="189.78" y1="107.67" x2="156.047" y2="78.138"/>
			<g>
				<defs>
					<polygon id="SVGID_1_" points="133.166,64.07 143.842,73.023 150.1,29.782 149.221,19.232 125.985,19.232 					"/>
				</defs>
				<clipPath id="SVGID_2_">
					<use xlink:href="#SVGID_1_"  overflow="visible"/>
				</clipPath>
				
					<path clip-path="url(#SVGID_2_)" fill="#FFFFFF" stroke="#FFFFFF" stroke-width="0.9882" stroke-linecap="round" stroke-miterlimit="10" d="
					M141.977,86.28c0,0,0.12,3.506-2.988,3.528l0,0c-3.104,0.022-3.249-9.929-3.249-9.929s2.671-27.339,2.216-32.04
					c-0.021-0.208-0.052-0.521-0.463-0.789c-3.119-2.143-4.281-4.67-4.326-10.915l0.691-11.451h0.322l0.994,14.538
					c0.002,0.339,0.152,0.612,0.457,0.609c0.309-0.001,0.453-0.278,0.451-0.618l0.754-14.55l0.381-0.002l0.959,14.539
					c0,0.337,0.152,0.612,0.457,0.611c0.307-0.002,0.453-0.28,0.45-0.619l0.786-14.55l0.348-0.002l0.961,14.537
					c0.003,0.341,0.151,0.614,0.457,0.612c0.31,0,0.455-0.28,0.453-0.619l0.753-14.549l0.354-0.004l0.854,11.442
					c0.043,6.243-1.078,8.787-4.17,10.973c-0.408,0.273-0.434,0.59-0.451,0.797C139.037,52.535,141.977,86.28,141.977,86.28z"/>
			</g>
			<g>
				<defs>
					<polygon id="SVGID_3_" points="150.063,76.971 162.281,87.556 162.281,35.56 152.863,31.416 147.965,38.826 					"/>
				</defs>
				<clipPath id="SVGID_4_">
					<use xlink:href="#SVGID_3_"  overflow="visible"/>
				</clipPath>
				
					<path clip-path="url(#SVGID_4_)" fill="#FFFFFF" stroke="#FFFFFF" stroke-width="0.9882" stroke-linecap="round" stroke-miterlimit="10" d="
					M157.707,66.865c-0.027,8.34,1.414,33.557,1.414,33.557s0.082,3.243-2.909,3.233l0,0c-2.989-0.015-2.886-3.254-2.886-3.254
					s1.648-24.569,1.725-33.238c0,0-0.016,0-0.022,0c-0.665-0.003,0.323-1.679-0.891-2.252c-0.799-0.373-1.251-0.762-1.613-2.027
					c-2.2-7.724,0.624-23.061,2.304-25.716c0.932-1.475,2.976-1.32,2.971-0.295C157.799,36.872,157.709,65.98,157.707,66.865z"/>
			</g>
		</g>
	</g>
</g>
</svg>
