<?xml version="1.0" encoding="utf-8"?>
<!-- Generator: Adobe Illustrator 16.0.0, SVG Export Plug-In . SVG Version: 6.00 Build 0)  -->
<!DOCTYPE svg PUBLIC "-//W3C//DTD SVG 1.1//EN" "http://www.w3.org/Graphics/SVG/1.1/DTD/svg11.dtd">
<svg version="1.1" id="Capa_1" xmlns="http://www.w3.org/2000/svg" xmlns:xlink="http://www.w3.org/1999/xlink" x="0px" y="0px"
	 width="342.286px" height="41.857px" viewBox="0 0 342.286 41.857" enable-background="new 0 0 342.286 41.857"
	 xml:space="preserve">
<g>
	<g>
		<path fill="#2C2C26" d="M166.953,21.605c-3.765-2.868-19.31-14.087-30.48-12.599c-17.561,1.247-19.127,24.681,0.562,25.631
			c9.879,0.474,21.591-7.933,29.465-12.756L166.953,21.605L166.953,21.605z M136.275,7.528
			c13.072-1.739,31.436,12.762,32.407,13.535c0.084,0.054,0.163,0.133,0.217,0.227c0.217,0.35,0.104,0.813-0.246,1.03
			c-0.463,0.276-0.917,0.557-1.375,0.837c-11.18,6.849-21.843,13.378-30.308,12.969C113.728,35.012,114.349,9.922,136.275,7.528z"/>
		<path fill="#2C2C26" d="M168.815,33.849c-0.241,0.364-0.759,0.438-1.099,0.162c-1.798-1.241-3.888-2.971-6.193-4.877
			c-2.587-2.134-5.445-4.499-8.411-6.613c-6.494,3.71-13.357,6.534-17.481,5.05c-5.381-1.139-9.697-7.189-3.055-11.249
			c6.267-3.661,13.727-0.345,20.621,4.425c6.538-3.824,12.609-8.426,14.718-10.057c0.325-0.251,0.798-0.192,1.05,0.138
			c0.251,0.325,0.192,0.793-0.133,1.044c-2.07,1.597-7.903,6.021-14.299,9.82c2.804,2.04,5.494,4.262,7.948,6.287
			c2.286,1.892,4.36,3.606,6.08,4.794c0,0.005,0.005,0.01,0.01,0.01C168.938,33.001,169.052,33.49,168.815,33.849L168.815,33.849z
			 M151.752,21.575c-4.942-3.345-10.372-5.183-14.974-4.592c-1.576,0.202-2.67,0.877-3.316,1.774
			c-0.941,1.311-0.921,3.094-0.059,4.563c0.566,0.965,1.508,1.798,2.779,2.262C139.685,26.847,145.765,24.936,151.752,21.575z"/>
		<path fill="#2C2C26" d="M170.397,21.62c3.765-2.873,19.305-14.087,30.479-12.599c17.562,1.242,19.128,24.681-0.562,25.626
			c-9.884,0.474-21.591-7.928-29.465-12.751L170.397,21.62L170.397,21.62z M201.064,7.538
			c-13.066-1.739-31.845,12.673-32.815,13.446c-0.039,0.044-0.301,0.301-0.217,0.586c0.094,0.325,0.542,0.685,0.66,0.759
			c0.463,0.281,0.917,0.562,1.375,0.843c11.18,6.844,21.843,13.373,30.308,12.968C223.611,35.027,223,9.937,201.064,7.538z"/>
		<path fill="#2C2C26" d="M168.328,33.864c0.246,0.364,0.759,0.438,1.099,0.163c1.798-1.247,3.888-2.972,6.193-4.878
			c2.587-2.139,5.45-4.499,8.416-6.613c6.494,3.71,13.353,6.529,17.472,5.045c5.391-1.138,9.707-7.188,3.065-11.244
			c-6.268-3.661-13.737-0.35-20.626,4.425c-6.538-3.823-12.609-8.426-14.718-10.057c-0.325-0.251-0.793-0.192-1.049,0.133
			c-0.251,0.325-0.187,0.798,0.138,1.049c2.064,1.597,7.898,6.017,14.299,9.82c-2.809,2.035-5.499,4.262-7.948,6.287
			c-2.291,1.887-4.36,3.602-6.08,4.794c-0.005,0.005-0.01,0.005-0.015,0.01C168.209,33.011,168.091,33.504,168.328,33.864
			L168.328,33.864z M185.386,21.59c4.946-3.351,10.376-5.184,14.979-4.598c5.41,0.695,5.124,6.943,0.601,8.604
			C197.458,26.857,191.377,24.946,185.386,21.59z"/>
		<g>
			<path fill="#2C2C26" d="M167.864,33.144c0.33-0.201,0.798-0.152,1.049,0.114c0.251,0.271,0.188,0.65-0.143,0.856
				c-1.828,1.144-3.651,2.228-5.475,3.085c-1.857,0.882-3.715,1.522-5.582,1.759c-1.912,0.246-3.814,0.06-5.706-0.734
				c-1.843-0.773-3.656-2.128-5.444-4.237c-0.232-0.28-0.148-0.66,0.192-0.853c0.34-0.187,0.803-0.118,1.04,0.158
				c1.636,1.932,3.267,3.158,4.897,3.848c1.587,0.666,3.184,0.818,4.794,0.616c1.656-0.212,3.346-0.803,5.06-1.611
				C164.297,35.318,166.076,34.263,167.864,33.144z"/>
			<path fill="#2C2C26" d="M169.574,33.273c-0.33-0.202-0.798-0.153-1.049,0.113c-0.251,0.271-0.35,0.522-0.025,0.729
				c1.705,1.267,3.814,2.36,5.643,3.218c1.852,0.877,3.715,1.522,5.582,1.759c1.917,0.242,3.809,0.055,5.701-0.738
				c1.843-0.773,3.666-2.134,5.449-4.238c0.236-0.275,0.148-0.66-0.197-0.847c-0.335-0.192-0.798-0.124-1.034,0.152
				c-1.636,1.932-3.272,3.163-4.897,3.849c-1.587,0.665-3.184,0.822-4.795,0.615c-1.66-0.207-3.351-0.803-5.061-1.611
				C173.136,35.446,171.363,34.391,169.574,33.273z"/>
		</g>
		<g>
			<path fill="#2C2C26" d="M168.046,11.065c0.296,0.227,0.725,0.172,0.951-0.123c0.227-0.296,0.167-0.719-0.128-0.941
				c-1.656-1.261-3.302-2.454-4.952-3.4c-1.68-0.971-3.355-1.68-5.045-1.936c-1.729-0.271-3.449-0.064-5.154,0.808
				c-1.671,0.853-3.312,2.345-4.923,4.666c-0.217,0.306-0.138,0.724,0.168,0.936c0.311,0.212,0.729,0.133,0.941-0.172
				c1.478-2.124,2.957-3.479,4.43-4.237c1.434-0.734,2.877-0.902,4.331-0.68c1.502,0.232,3.03,0.887,4.578,1.779
				C164.824,8.676,166.43,9.838,168.046,11.065z"/>
			<path fill="#2C2C26" d="M169.594,10.927c-0.295,0.222-0.719,0.168-0.951-0.128c-0.222-0.295-0.315-0.576-0.02-0.798
				c1.542-1.399,3.449-2.602,5.095-3.542c1.685-0.971,3.365-1.68,5.05-1.941c1.729-0.266,3.444-0.064,5.159,0.813
				c1.665,0.853,3.301,2.345,4.917,4.671c0.217,0.301,0.138,0.72-0.167,0.931c-0.306,0.212-0.729,0.133-0.937-0.172
				c-1.487-2.124-2.956-3.479-4.435-4.238c-1.429-0.729-2.877-0.902-4.331-0.675c-1.498,0.227-3.03,0.882-4.577,1.774
				C172.816,8.533,171.21,9.696,169.594,10.927z"/>
		</g>
	</g>
</g>
<g>
	<g>
		<path fill-rule="evenodd" clip-rule="evenodd" fill="#2C2C26" d="M334.396,24.522c1.558,0,2.818-1.227,2.818-2.725
			c0-1.498-1.261-2.72-2.818-2.72c-1.547,0-2.818,1.222-2.818,2.72C331.578,23.295,332.849,24.522,334.396,24.522z"/>
		<rect x="7.639" y="20.698" fill="#2C2C26" width="112.046" height="2.966"/>
		<rect x="217.66" y="20.703" fill="#2C2C26" width="117.013" height="2.957"/>
		<path fill-rule="evenodd" clip-rule="evenodd" fill="#2C2C26" d="M7.038,25.009c1.552,0,2.823-1.222,2.823-2.72
			c0-1.502-1.271-2.725-2.823-2.725c-1.557,0-2.824,1.222-2.824,2.725C4.214,23.788,5.481,25.009,7.038,25.009z"/>
	</g>
</g>
</svg>
